# xmcd CD database file
#
# Track frame offsets:
#	150
#	20582
#	37377
#	57797
#	79610
#	104592
#	121877
#	140347
#	162957
#	184130
#
# Disc length: 2622 seconds
#
# Revision: 1
# Processed by: cddbd v1.5.1PL0 Copyright (c) Steve Scherf et al.
# Submitted via: CDex 1.51
#
DISCID=860a3c0a
DTITLE=The Wayward Trio - Nudnik
DYEAR=2003
DGENRE=Jazz
TTITLE0=Not Just Friends
TTITLE1=Nudnik
TTITLE2=Bad Hair Day
TTITLE3=The Bottom Line
TTITLE4=Memory Book
TTITLE5=Ba-Dat!!
TTITLE6=Vice Squad
TTITLE7=The Witch
TTITLE8=Too Shy To Say
TTITLE9=Punchy
EXTD=YEAR: 2003
EXTT0=
EXTT1=
EXTT2=
EXTT3=
EXTT4=
EXTT5=
EXTT6=
EXTT7=
EXTT8=
EXTT9=
PLAYORDER=
